<?xml version="1.0" encoding="UTF-8" standalone="no"?>
<svg width="101px" height="51px" viewBox="0 0 101 51" version="1.1" xmlns="http://www.w3.org/2000/svg" xmlns:xlink="http://www.w3.org/1999/xlink" xmlns:sketch="http://www.bohemiancoding.com/sketch/ns">
    <!-- Generator: Sketch 3.2 (9961) - http://www.bohemiancoding.com/sketch -->
    <title>Group</title>
    <desc>Created with Sketch.</desc>
    <defs>
        <linearGradient x1="50%" y1="0%" x2="50%" y2="100%" id="linearGradient-1">
            <stop stop-color="#EFEFEF" offset="0%"></stop>
            <stop stop-color="#A8A8A8" offset="100%"></stop>
        </linearGradient>
        <linearGradient x1="50%" y1="0%" x2="50%" y2="100%" id="linearGradient-2">
            <stop stop-color="#FBFBFB" offset="0%"></stop>
            <stop stop-color="#DFDFDF" offset="100%"></stop>
        </linearGradient>
        <linearGradient x1="-0.000581540251%" y1="49.9961157%" x2="100.000328%" y2="49.9961157%" id="linearGradient-3">
            <stop stop-color="#EC6608" offset="0%"></stop>
            <stop stop-color="#F9B000" offset="100%"></stop>
        </linearGradient>
        <linearGradient x1="0.000872201686%" y1="49.997914%" x2="99.9974332%" y2="49.997914%" id="linearGradient-4">
            <stop stop-color="#FFED00" offset="0%"></stop>
            <stop stop-color="#BCCF00" offset="100%"></stop>
        </linearGradient>
        <linearGradient x1="-0.00336448598%" y1="50.0000641%" x2="99.9974455%" y2="50.0000641%" id="linearGradient-5">
            <stop stop-color="#EC6608" offset="0%"></stop>
            <stop stop-color="#C8D400" offset="100%"></stop>
        </linearGradient>
        <linearGradient x1="-0.00298747558%" y1="49.9977699%" x2="99.9984488%" y2="49.9977699%" id="linearGradient-6">
            <stop stop-color="#E40428" offset="0%"></stop>
            <stop stop-color="#EC6608" offset="100%"></stop>
        </linearGradient>
        <linearGradient x1="-0.000444066166%" y1="49.9987052%" x2="100.001173%" y2="49.9987052%" id="linearGradient-7">
            <stop stop-color="#B70E0C" offset="0%"></stop>
            <stop stop-color="#C80973" offset="100%"></stop>
        </linearGradient>
        <linearGradient x1="-0.000344669118%" y1="49.9998561%" x2="100.000821%" y2="49.9998561%" id="linearGradient-8">
            <stop stop-color="#65B32E" offset="0%"></stop>
            <stop stop-color="#C8D400" offset="100%"></stop>
        </linearGradient>
        <linearGradient x1="0.00118417644%" y1="50.0012947%" x2="99.9991896%" y2="50.0012947%" id="linearGradient-9">
            <stop stop-color="#0081A7" offset="0%"></stop>
            <stop stop-color="#76B82A" offset="100%"></stop>
        </linearGradient>
        <linearGradient x1="-0.000344708721%" y1="49.9956121%" x2="100.001092%" y2="49.9956121%" id="linearGradient-10">
            <stop stop-color="#76B82A" offset="0%"></stop>
            <stop stop-color="#0081A7" offset="100%"></stop>
        </linearGradient>
        <linearGradient x1="0.00095522884%" y1="50.0002563%" x2="99.9974167%" y2="50.0002563%" id="linearGradient-11">
            <stop stop-color="#C80973" offset="0%"></stop>
            <stop stop-color="#007BC4" offset="100%"></stop>
        </linearGradient>
        <linearGradient x1="-0.00191085448%" y1="50.0006474%" x2="99.9990944%" y2="50.0006474%" id="linearGradient-12">
            <stop stop-color="#213A8F" offset="0%"></stop>
            <stop stop-color="#009FE3" offset="100%"></stop>
        </linearGradient>
        <linearGradient x1="-0.000930752048%" y1="49.997561%" x2="100.000382%" y2="49.997561%" id="linearGradient-13">
            <stop stop-color="#831F82" offset="0%"></stop>
            <stop stop-color="#5C2483" offset="100%"></stop>
        </linearGradient>
        <linearGradient x1="-0.000290733896%" y1="49.9999005%" x2="100.000324%" y2="49.9999005%" id="linearGradient-14">
            <stop stop-color="#831F82" offset="0%"></stop>
            <stop stop-color="#5C2483" offset="100%"></stop>
        </linearGradient>
        <linearGradient x1="-0.0018275461%" y1="49.9987049%" x2="99.9988869%" y2="49.9987049%" id="linearGradient-15">
            <stop stop-color="#C8D400" offset="0%"></stop>
            <stop stop-color="#65B32E" offset="100%"></stop>
        </linearGradient>
        <linearGradient x1="-0.00126393198%" y1="49.9978112%" x2="100.000172%" y2="49.9978112%" id="linearGradient-16">
            <stop stop-color="#FDC300" offset="0%"></stop>
            <stop stop-color="#FFD500" offset="100%"></stop>
        </linearGradient>
        <linearGradient x1="-0.003274921%" y1="50.0049736%" x2="99.9982936%" y2="50.0049736%" id="linearGradient-17">
            <stop stop-color="#EF7D00" offset="0%"></stop>
            <stop stop-color="#FFD500" offset="100%"></stop>
        </linearGradient>
        <linearGradient x1="-0.000344768144%" y1="50.0035824%" x2="100.001494%" y2="50.0035824%" id="linearGradient-18">
            <stop stop-color="#BCCF00" offset="0%"></stop>
            <stop stop-color="#FFED00" offset="100%"></stop>
        </linearGradient>
        <linearGradient x1="-0.00224086417%" y1="49.9971141%" x2="99.9994656%" y2="49.9971141%" id="linearGradient-19">
            <stop stop-color="#C8D400" offset="0%"></stop>
            <stop stop-color="#A2C617" offset="100%"></stop>
        </linearGradient>
        <linearGradient x1="-0.000344708721%" y1="50.0004974%" x2="100.001092%" y2="50.0004974%" id="linearGradient-20">
            <stop stop-color="#213A8F" offset="0%"></stop>
            <stop stop-color="#009FE3" offset="100%"></stop>
        </linearGradient>
        <linearGradient x1="0.00178119972%" y1="50.0018907%" x2="100.003488%" y2="50.0018907%" id="linearGradient-21">
            <stop stop-color="#E50071" offset="0%"></stop>
            <stop stop-color="#831F82" offset="100%"></stop>
        </linearGradient>
        <linearGradient x1="-343.173566%" y1="49.9956445%" x2="367.849985%" y2="49.9956445%" id="linearGradient-22">
            <stop stop-color="#E94190" offset="0%"></stop>
            <stop stop-color="#A71680" offset="100%"></stop>
        </linearGradient>
    </defs>
    <g id="Page-1" stroke="none" stroke-width="1" fill="none" fill-rule="evenodd" sketch:type="MSPage">
        <g id="Group" sketch:type="MSLayerGroup">
            <rect id="Rectangle-1" fill="url(#linearGradient-1)" sketch:type="MSShapeGroup" x="1" y="1" width="100" height="50" rx="4"></rect>
            <rect id="Rectangle-2" fill="url(#linearGradient-2)" sketch:type="MSShapeGroup" x="0" y="0" width="100" height="50" rx="4"></rect>
            <g transform="translate(10.000000, 6.000000)" sketch:type="MSShapeGroup">
                <path d="M7.08568604,9.1576124 C6.66639498,9.1576124 6.30068001,9.37295319 6.10467808,9.69251137 L6.10467808,9.69251137 L3.08012539,8.04418127 C3.17662889,7.88754126 3.23353267,7.70484689 3.23353267,7.50991012 L3.23353267,7.50991012 C3.23353267,7.31497335 3.17662889,7.13259289 3.08079093,6.97532506 L3.08079093,6.97532506 L6.10467808,5.3285645 C6.30068001,5.64843659 6.66606221,5.86346347 7.08568604,5.86346347 L7.08568604,5.86346347 C7.50564263,5.86346347 7.87069207,5.64843659 8.06735954,5.32887841 L8.06735954,5.32887841 L11.0912467,6.9768946 C10.9944104,7.13416243 10.9385049,7.31654289 10.9385049,7.51147966 L10.9385049,7.51147966 C10.9385049,7.70578862 10.9944104,7.88848298 11.0912467,8.04575081 L11.0912467,8.04575081 L10.2862744,8.48396617 C10.109906,8.19768221 10.0074126,7.86588162 10.0074126,7.51147966 L10.0074126,7.51147966 C10.0074126,7.34542241 10.0320376,7.1850155 10.0739667,7.03088675 L10.0739667,7.03088675 L8.5262503,6.18741637 C8.15387991,6.52988983 7.64573909,6.74209153 7.08568604,6.74209153 L7.08568604,6.74209153 C6.52596576,6.74209153 6.01849048,6.52988983 5.64645286,6.18773027 L5.64645286,6.18773027 L4.09873644,7.03151456 C4.13966723,7.1850155 4.16429226,7.34479459 4.16429226,7.50991012 L4.16429226,7.50991012 C4.16429226,7.67690909 4.13933446,7.83762991 4.09707258,7.9930143 L4.09707258,7.9930143 L5.64445623,8.83522905 C6.01649385,8.49181386 6.52496745,8.27898434 7.08568604,8.27898434 L7.08568604,8.27898434 C7.8487292,8.27898434 8.51460333,8.67293869 8.87199904,9.25398211 L8.87199904,9.25398211 L8.06735954,9.69251137 C7.87069207,9.37295319 7.50564263,9.1576124 7.08568604,9.1576124" id="path144" fill="url(#linearGradient-3)" transform="translate(7.073374, 7.525919) scale(1, -1) translate(-7.073374, -7.525919) "></path>
                <path d="M12.0722546,6.43885655 C11.652298,6.43885655 11.2862503,6.65482515 11.0902484,6.97438334 L11.0902484,6.97438334 L10.2859416,6.53648189 C10.5528237,6.10297516 10.9910827,5.77399973 11.5138654,5.63525246 L11.5138654,5.63525246 L11.5138654,3.95019515 C10.9914155,3.81176179 10.5534893,3.48310027 10.2862744,3.04959354 L10.2862744,3.04959354 L11.0912467,2.61137818 C11.2872486,2.93125028 11.6526308,3.14627715 12.0722546,3.14627715 L12.0722546,3.14627715 C12.4922112,3.14627715 12.8575934,2.93125028 13.0535954,2.612006 L13.0535954,2.612006 L13.8585676,3.05022135 C13.5913528,3.48310027 13.1530938,3.81176179 12.6309766,3.95019515 L12.6309766,3.95019515 L12.6309766,5.63525246 C13.1537593,5.77399973 13.5926839,6.10297516 13.859566,6.5367958 L13.859566,6.5367958 L13.0545937,6.97532506 C12.8589245,6.65482515 12.492544,6.43885655 12.0722546,6.43885655 L12.0722546,6.43885655 Z M14.994314,4.79272381 C14.994314,4.43894966 15.0968073,4.10714907 15.2725102,3.82086511 L15.2725102,3.82086511 L16.0771497,4.25939438 C15.980979,4.41603439 15.9254063,4.59841485 15.9254063,4.79272381 L15.9254063,4.79272381 C15.9254063,4.98828839 15.9816446,5.17035494 16.0788136,5.3285645 L16.0788136,5.3285645 L15.2735086,5.76677985 C15.0968073,5.48018199 14.994314,5.14743967 14.994314,4.79272381 L14.994314,4.79272381 Z M8.066694,5.32730887 C8.16353026,5.16972713 8.22010128,4.98766058 8.22010128,4.79272381 L8.22010128,4.79272381 C8.22010128,4.59778703 8.16353026,4.41540657 8.06735954,4.25813874 L8.06735954,4.25813874 L8.87199904,3.8202373 C9.04803472,4.10683516 9.15086086,4.43832185 9.15086086,4.79272381 L9.15086086,4.79272381 C9.15086086,5.14743967 9.04803472,5.47955417 8.87199904,5.76615204 L8.87199904,5.76615204 L8.066694,5.32730887 L8.066694,5.32730887 Z" id="path164" fill="url(#linearGradient-4)" transform="translate(12.059942, 4.808733) scale(1, -1) translate(-12.059942, -4.808733) "></path>
                <path d="M12.0722546,12.3145836 C11.6526308,12.3145836 11.2872486,12.5296105 11.0912467,12.8494826 L11.0912467,12.8494826 L8.06735954,11.2014664 C8.16353026,11.0438847 8.22010128,10.8618181 8.22010128,10.6668813 L8.22010128,10.6668813 C8.22010128,10.4719446 8.16386303,10.2892502 8.06735954,10.1322963 L8.06735954,10.1322963 L8.87199904,9.69376701 C9.04836749,9.98036487 9.15086086,10.3118516 9.15086086,10.6668813 L9.15086086,10.6668813 C9.15086086,10.8329386 9.1265686,10.9930316 9.0846395,11.1477881 L9.0846395,11.1477881 L10.6323559,11.9906307 C10.8759441,11.7668144 11.1774343,11.6001294 11.5138654,11.5103517 L11.5138654,11.5103517 L11.5141982,8.25544126 L11.5131999,8.25544126 L12.0722546,7.95095064 L12.6316422,8.25544126 L12.6313094,8.25606907 L12.6309766,11.5103517 C13.1534266,11.649099 13.5916856,11.9777605 13.8589004,12.4109533 L13.8589004,12.4109533 L13.0539281,12.8494826 C12.8575934,12.5296105 12.4922112,12.3145836 12.0722546,12.3145836 M14.994314,10.6700204 C14.994314,10.3146767 15.0971401,9.98193441 15.2738413,9.69565045 L15.2738413,9.69565045 L16.0788136,10.1341797 C15.9816446,10.2917615 15.9254063,10.4744558 15.9254063,10.6700204 L15.9254063,10.6700204 C15.9254063,10.8643294 15.980979,11.0457681 16.076817,11.202722 L16.076817,11.202722 L15.2721775,11.6412513 C15.0968073,11.3546534 14.994314,11.0237945 14.994314,10.6700204" id="path184" fill="url(#linearGradient-5)" transform="translate(12.060608, 10.462213) scale(1, -1) translate(-12.060608, -10.462213) "></path>
                <path d="M2.09878466,11.8735431 C1.67949361,11.8735431 1.31411141,12.0895117 1.11777671,12.4090699 L1.11777671,12.4090699 L0.313469978,11.9705406 C0.580019291,11.5370339 1.01827827,11.2093141 1.54072824,11.069939 L1.54072824,11.069939 L1.54072824,9.38582341 C1.01761273,9.24644833 0.579020979,8.9174729 0.312471666,8.48365226 L0.312471666,8.48365226 L1.11677839,8.04543691 C1.31344586,8.365309 1.67916084,8.58190542 2.09878466,8.58190542 L2.09878466,8.58190542 C2.51907403,8.58190542 2.88512177,8.365309 3.08079093,8.04543691 L3.08079093,8.04543691 L3.8857632,8.48365226 C3.61888112,8.91778681 3.18028937,9.24644833 2.65750663,9.38582341 L2.65750663,9.38582341 L2.65750663,11.069939 C2.99460333,11.1594027 3.29742464,11.3267156 3.54134555,11.5517875 L3.54134555,11.5517875 L5.08739812,10.708945 C5.04580178,10.5548162 5.02117675,10.3940954 5.02117675,10.2280382 L5.02117675,10.2280382 C5.02117675,9.87300839 5.12333735,9.5415217 5.30003858,9.25429602 L5.30003858,9.25429602 L6.10467808,9.6934531 C6.00817458,9.85040702 5.95193634,10.0324736 5.95193634,10.2280382 L5.95193634,10.2280382 C5.95193634,10.4223471 6.00817458,10.6044137 6.10467808,10.7623093 L6.10467808,10.7623093 L3.08079093,12.4090699 C2.88445623,12.0895117 2.51874126,11.8735431 2.09878466,11.8735431" id="path204" fill="url(#linearGradient-6)" transform="translate(3.141022, 10.242792) scale(1, -1) translate(-3.141022, -10.242792) "></path>
                <path d="M7.08568604,14.5897877 C6.66639498,14.5897877 6.30068001,14.8051285 6.10467808,15.1253145 L6.10467808,15.1253145 L5.30003858,14.6861574 C5.65743429,14.105114 6.32330842,13.7114735 7.08568604,13.7114735 L7.08568604,13.7114735 C7.8487292,13.7114735 8.51460333,14.105114 8.87199904,14.6867852 L8.87199904,14.6867852 L8.06735954,15.1253145 C7.87102484,14.8051285 7.50564263,14.5897877 7.08568604,14.5897877 L7.08568604,14.5897877 Z M3.08079093,13.4772983 C3.17696166,13.3203444 3.23353267,13.1382778 3.23353267,12.9439688 L3.23353267,12.9439688 C3.23353267,12.7480903 3.17662889,12.5657099 3.07979262,12.4081282 L3.07979262,12.4081282 L3.88476489,11.9695989 C4.06146612,12.2565107 4.16429226,12.5889391 4.16429226,12.9439688 L4.16429226,12.9439688 C4.16429226,13.2983708 4.06179889,13.6292297 3.8857632,13.9155136 L3.8857632,13.9155136 L3.08079093,13.4772983 L3.08079093,13.4772983 Z M8.5262503,11.6205334 C8.15387991,11.9636346 7.64573909,12.1755224 7.08568604,12.1755224 L7.08568604,12.1755224 C6.3223101,12.1755224 5.65610321,11.781882 5.2987075,11.1998969 L5.2987075,11.1998969 L6.10401254,10.7613676 C6.30001447,11.0812397 6.66572944,11.2978361 7.08568604,11.2978361 L7.08568604,11.2978361 C7.5059754,11.2978361 7.87169038,11.0818675 8.06769231,10.7616815 L8.06769231,10.7616815 L12.0722546,12.9439688 L11.5131999,13.2484595 L8.5262503,11.6205334 L8.5262503,11.6205334 Z" id="path224" fill="url(#linearGradient-7)" transform="translate(7.572197, 12.958723) scale(1, -1) translate(-7.572197, -12.958723) "></path>
                <path d="M0.965168073,13.0394596 C0.965168073,13.2337686 1.02074078,13.4158351 1.1169115,13.572789 L0.312272004,14.0113183 C0.136569086,13.7250343 0.0340757174,13.3938616 0.0340757174,13.0394596 C0.0340757174,12.6844298 0.137234627,12.3523153 0.313935857,12.0647757 L1.11890813,12.5036189 C1.02173909,12.6612007 0.965168073,12.843895 0.965168073,13.0394596" id="path236" fill="#B70E0C" transform="translate(0.533232, 13.006499) scale(1, -1) translate(-0.533232, -13.006499) "></path>
                <path d="M2.09898433,16.4293818 C2.86136195,16.4293818 3.5269033,16.8217666 3.88463178,17.403124 L3.07965951,17.8419671 C2.88332481,17.5224089 2.51860815,17.3073821 2.09898433,17.3073821 C1.68002604,17.3073821 1.31530938,17.5224089 1.11897468,17.8413393 L0.314002411,17.403124 C0.67173089,16.8217666 1.33693947,16.4293818 2.09898433,16.4293818 M6.10521051,15.1254086 L3.08165614,13.4780203 C2.88598698,13.7985202 2.51993923,14.0157444 2.09898433,14.0157444 C1.67836219,14.0157444 1.31231444,13.7985202 1.11631252,13.4780203 L0.311340246,13.9162356 C0.668403183,14.4994764 1.33527562,14.8934307 2.09898433,14.8934307 C2.65937015,14.8934307 3.1671782,14.6815429 3.53954859,14.3387556 L5.08693224,15.1809703 C5.04533591,15.3350991 5.02104365,15.495506 5.02104365,15.6612493 C5.02104365,16.0156513 5.12320424,16.3465102 5.29857439,16.6327941 L6.10387943,16.1945788 C6.00770871,16.0376248 5.95180323,15.8561861 5.95180323,15.6612493 C5.95180323,15.4656847 6.00837425,15.2836182 6.10521051,15.1254086" id="path240" fill="#E5005B" transform="translate(3.139891, 15.675375) scale(1, -1) translate(-3.139891, -15.675375) "></path>
                <path d="M22.0460574,11.8707179 C21.6261008,11.8707179 21.2600531,12.0860587 21.0640511,12.4068725 L21.0640511,12.4068725 L18.0408295,10.7594841 C18.137333,10.6025302 18.1932385,10.4204637 18.1932385,10.2261547 L18.1932385,10.2261547 C18.1932385,10.0305901 18.1363347,9.84789576 18.0398312,9.69031402 L18.0398312,9.69031402 L18.8444707,9.25178476 C19.0211719,9.53869653 19.1243308,9.87081103 19.1243308,10.2261547 L19.1243308,10.2261547 C19.1243308,10.392212 19.0997058,10.552305 19.0581095,10.7061198 L19.0581095,10.7061198 L20.604162,11.5480207 C20.8477502,11.3235765 21.1502387,11.1562637 21.4876682,11.066486 L21.4876682,11.066486 L21.4876682,9.38174261 C20.9648855,9.24330925 20.5266265,8.91464773 20.2597444,8.481141 L20.2597444,8.481141 L21.0647167,8.04292564 C21.2603858,8.36279774 21.6264336,8.57876634 22.0460574,8.57876634 L22.0460574,8.57876634 C22.4653484,8.57876634 22.8307306,8.36279774 23.0273981,8.04355346 L23.0273981,8.04355346 L23.8317048,8.48176881 C23.56449,8.91464773 23.1268966,9.24330925 22.6047794,9.38174261 L22.6047794,9.38174261 L22.6047794,11.066486 C23.1275621,11.2058611 23.5661538,11.5345226 23.8327032,11.9686572 L23.8327032,11.9686572 L23.0280637,12.4068725 C22.8320617,12.0860587 22.4663468,11.8707179 22.0460574,11.8707179" id="path260" fill="url(#linearGradient-8)" transform="translate(20.868382, 10.240281) scale(1, -1) translate(-20.868382, -10.240281) "></path>
                <path d="M23.1798736,13.0350963 C23.1798736,12.8401595 23.1236354,12.658093 23.0271319,12.5005112 L23.8321042,12.061982 C24.0081399,12.3488937 24.110966,12.6806943 24.110966,13.0350963 C24.110966,13.3901261 24.0081399,13.7222406 23.8317714,14.0088384 L23.0271319,13.5703092 C23.1236354,13.4127274 23.1798736,13.2306609 23.1798736,13.0350963" id="path272" fill="#00A8B0" transform="translate(23.526288, 13.003706) scale(1, -1) translate(-23.526288, -13.003706) "></path>
                <path d="M17.0588232,14.5897877 C16.6401977,14.5897877 16.2751483,14.8051285 16.0788136,15.1240588 L16.0788136,15.1240588 L15.2741741,14.6855296 C15.5410562,14.2529646 15.9789824,13.9249309 16.5007668,13.7861836 L16.5007668,13.7861836 L16.5007668,12.1001846 C16.1643357,12.0107208 15.8628454,11.8437218 15.6195901,11.6202195 L15.6195901,11.6202195 L12.6316422,13.2453204 L12.0722546,12.9408298 L16.0771497,10.7597981 C16.2731517,11.0799841 16.6388667,11.2962666 17.0588232,11.2962666 L17.0588232,11.2962666 C17.4791126,11.2962666 17.8451604,11.0799841 18.0408295,10.7597981 L18.0408295,10.7597981 L18.8458018,11.1983273 C18.5785869,11.6324619 18.1406607,11.9611234 17.617878,12.1001846 L17.617878,12.1001846 L17.617878,13.7861836 C18.1396624,13.9249309 18.5775886,14.2529646 18.8444707,14.6855296 L18.8444707,14.6855296 L18.0398312,15.1240588 C17.8434965,14.8051285 17.4781143,14.5897877 17.0588232,14.5897877 M19.9808826,12.9420854 C19.9808826,12.5876834 20.0833759,12.2561968 20.2597444,11.9689711 L20.2597444,11.9689711 L21.0647167,12.4075003 C20.9682132,12.5647682 20.9119749,12.7471486 20.9119749,12.9420854 L20.9119749,12.9420854 C20.9119749,13.1370222 20.9682132,13.3190887 21.0647167,13.4766705 L21.0647167,13.4766705 L20.2597444,13.9148858 C20.0833759,13.6289158 19.9808826,13.2968013 19.9808826,12.9420854" id="path292" fill="url(#linearGradient-9)" transform="translate(16.564659, 12.957153) scale(1, -1) translate(-16.564659, -12.957153) "></path>
                <path d="M22.0460574,17.3050905 C21.6264336,17.3050905 21.2607186,17.5210591 21.0647167,17.8399895 L21.0647167,17.8399895 L20.2597444,17.4014603 C20.6174729,16.819789 21.283347,16.4274042 22.0460574,16.4274042 L22.0460574,16.4274042 C22.8087678,16.4274042 23.4746419,16.8204168 23.8320376,17.4014603 L23.8320376,17.4014603 L23.0273981,17.8399895 C22.8310634,17.5210591 22.4656812,17.3050905 22.0460574,17.3050905 L22.0460574,17.3050905 Z M18.0408295,16.1922872 C18.137333,16.0356472 18.1932385,15.8532668 18.1932385,15.6589578 L18.1932385,15.6589578 C18.1932385,15.4633932 18.1363347,15.2806988 18.0398312,15.1231171 L18.0398312,15.1231171 L21.0647167,13.4760426 C21.2603858,13.7956008 21.6261008,14.0115694 22.0457246,14.0115694 L22.0457246,14.0115694 C22.4653484,14.0115694 22.8307306,13.7956008 23.0273981,13.4763566 L23.0273981,13.4763566 L23.8320376,13.9145719 C23.4743091,14.496557 22.808435,14.8895697 22.0457246,14.8895697 L22.0457246,14.8895697 C21.4863371,14.8895697 20.9791946,14.677368 20.6068242,14.3358362 L20.6068242,14.3358362 L19.0584422,15.1796205 C19.0997058,15.3334354 19.1243308,15.4932145 19.1243308,15.6589578 L19.1243308,15.6589578 C19.1243308,16.0133598 19.0218375,16.3451604 18.8458018,16.6308165 L18.8458018,16.6308165 L18.0408295,16.1922872 L18.0408295,16.1922872 Z" id="path312" fill="url(#linearGradient-10)" transform="translate(20.868382, 15.673398) scale(1, -1) translate(-20.868382, -15.673398) "></path>
                <path d="M8.06769231,15.566355 C8.16386303,15.4087733 8.22010128,15.2273345 8.22010128,15.0323977 L8.22010128,15.0323977 C8.22010128,14.837461 8.16353026,14.6547666 8.06636122,14.4971849 L8.06636122,14.4971849 L11.0912467,12.8497965 C11.2875814,13.1693547 11.6529636,13.3853233 12.0725874,13.3853233 L12.0725874,13.3853233 C12.4922112,13.3853233 12.8575934,13.1699825 13.0539281,12.8497965 L13.0539281,12.8497965 L13.8589004,13.2889536 C13.5008392,13.869997 12.8356306,14.2630096 12.0725874,14.2630096 L12.0725874,14.2630096 C11.5131999,14.2630096 11.0053918,14.0517496 10.6330215,13.7095901 L10.6330215,13.7095901 L9.0846395,14.5524326 C9.1265686,14.7062475 9.15086086,14.8669683 9.15086086,15.0323977 L9.15086086,15.0323977 C9.15086086,15.1987689 9.1265686,15.3594897 9.0846395,15.5129907 L9.0846395,15.5129907 L12.0725874,17.1409167 L15.0605353,15.515188 C15.0186062,15.3610593 14.994314,15.2006523 14.994314,15.0342812 L14.994314,15.0342812 C14.994314,14.6789375 15.0971401,14.3471369 15.2738413,14.0602251 L15.2738413,14.0602251 L16.0788136,14.4984405 C15.9816446,14.6560222 15.9254063,14.8387166 15.9254063,15.0342812 L15.9254063,15.0342812 C15.9254063,15.2285901 15.980979,15.4103428 16.0771497,15.5676106 L16.0771497,15.5676106 L12.0722546,17.7486423 L8.06769231,15.566355 L8.06769231,15.566355 Z" id="path332" fill="url(#linearGradient-11)" transform="translate(12.059609, 15.361059) scale(1, -1) translate(-12.059609, -15.361059) "></path>
                <path d="M17.0588232,20.0232186 C16.6401977,20.0232186 16.2751483,20.2379316 16.0788136,20.5568619 L16.0788136,20.5568619 L15.2738413,20.1186466 C15.6319026,19.5372892 16.2971112,19.1449044 17.0588232,19.1449044 L17.0588232,19.1449044 C17.6195418,19.1449044 18.1276827,19.3571061 18.5007186,19.7005213 L18.5007186,19.7005213 L20.0474367,18.8573648 C20.0055076,18.7029222 19.9808826,18.5425153 19.9808826,18.3755163 L19.9808826,18.3755163 C19.9808826,18.0204865 20.0833759,17.6889998 20.2597444,17.4017742 L20.2597444,17.4017742 L21.0647167,17.8409312 C20.9682132,17.998513 20.9119749,18.1805795 20.9119749,18.3755163 L20.9119749,18.3755163 C20.9119749,18.5704531 20.9678804,18.7525196 21.0647167,18.9097875 L21.0647167,18.9097875 L18.0398312,20.5568619 C17.8434965,20.2379316 17.4781143,20.0232186 17.0588232,20.0232186 L17.0588232,20.0232186 Z M13.0539281,18.9082179 C13.1504316,18.7515779 13.2070027,18.5685696 13.2070027,18.3736329 L13.2070027,18.3736329 C13.2070027,18.1786961 13.1504316,17.9966295 13.0539281,17.8393617 L13.0539281,17.8393617 L13.8589004,17.4008324 C14.0356016,17.6868025 14.138095,18.0186031 14.138095,18.3736329 L14.138095,18.3736329 C14.138095,18.7286626 14.0352689,19.0601493 13.8589004,19.347375 L13.8589004,19.347375 L13.0539281,18.9082179 L13.0539281,18.9082179 Z M15.2721775,16.6311304 L16.0771497,16.192915 C16.2731517,16.5127871 16.6388667,16.7293836 17.059156,16.7293836 L17.059156,16.7293836 C17.4791126,16.7293836 17.8448276,16.5137289 18.0408295,16.192915 L18.0408295,16.192915 L18.8458018,16.6320721 C18.4884061,17.2143712 17.8221992,17.6073838 17.059156,17.6073838 L17.059156,17.6073838 C16.2957801,17.6073838 15.6295732,17.2137434 15.2721775,16.6311304 L15.2721775,16.6311304 Z" id="path352" fill="url(#linearGradient-12)" transform="translate(17.047176, 18.390270) scale(1, -1) translate(-17.047176, -18.390270) "></path>
                <path d="M5.29804196,19.4575566 L6.10268146,19.0193413 C6.29901616,19.340469 6.66539667,19.5570654 7.08568604,19.5570654 L7.08568604,19.5570654 C7.50630817,19.5570654 7.87268869,19.340469 8.06835785,19.0199691 L8.06835785,19.0199691 L8.87333012,19.4581845 C8.51593441,20.0414252 7.84939474,20.4350657 7.08568604,20.4350657 L7.08568604,20.4350657 C6.32197733,20.4350657 5.6551049,20.0407974 5.29804196,19.4575566" id="path372" fill="url(#linearGradient-13)" transform="translate(7.128281, 19.804111) scale(1, -1) translate(-7.128281, -19.804111) "></path>
                <path d="M7.08568604,18.8627013 C6.66672776,18.8627013 6.30167832,19.0774142 6.10534362,19.3960307 L6.10534362,19.3960307 L3.08145647,17.7486423 C3.1776272,17.5920023 3.23353267,17.4102497 3.23353267,17.2165685 L3.23353267,17.2165685 C3.23353267,17.0210039 3.17629612,16.8376818 3.07912708,16.6794722 L3.07912708,16.6794722 L3.88376658,16.2412569 C4.06080058,16.5284825 4.16429226,16.8609109 4.16429226,17.2165685 L4.16429226,17.2165685 C4.16429226,17.3826258 4.13933446,17.5427188 4.09840367,17.6968475 L4.09840367,17.6968475 L5.64545455,18.5390623 C6.01782493,18.1962749 6.52563299,17.9840732 7.08568604,17.9840732 L7.08568604,17.9840732 C7.64607186,17.9840732 8.15421268,18.1962749 8.52658307,18.5390623 L8.52658307,18.5390623 L10.0739667,17.6968475 C10.0323704,17.542091 10.0074126,17.3813702 10.0074126,17.2146851 L10.0074126,17.2146851 C10.0074126,16.8596553 10.1102387,16.5278547 10.2866072,16.2418847 L10.2866072,16.2418847 L11.0912467,16.6804139 C10.995076,16.8376818 10.9385049,17.0197483 10.9385049,17.2146851 L10.9385049,17.2146851 C10.9385049,17.4096219 10.995076,17.5920023 11.0912467,17.7492702 L11.0912467,17.7492702 L8.06636122,19.3966585 C7.87002653,19.0774142 7.50497709,18.8627013 7.08568604,18.8627013" id="path392" fill="url(#linearGradient-14)" transform="translate(7.072375, 17.810796) scale(1, -1) translate(-7.072375, -17.810796) "></path>
                <path d="M17.059156,9.15321769 C16.6388667,9.15321769 16.2734844,9.36918629 16.0771497,9.6893723 L16.0771497,9.6893723 L15.2725102,9.25084303 C15.6295732,8.66854398 16.2961129,8.27458963 17.059156,8.27458963 L17.059156,8.27458963 C17.6198746,8.27458963 18.1283482,8.48741915 18.5010514,8.83083434 L18.5010514,8.83083434 L20.0474367,7.98861959 C20.0055076,7.83449083 19.9808826,7.67345611 19.9808826,7.50708495 L19.9808826,7.50708495 C19.9808826,7.34165552 20.0051748,7.18156251 20.0471039,7.02837549 L20.0471039,7.02837549 L18.5000531,6.18616073 C18.1276827,6.52863419 17.6192091,6.7408359 17.0588232,6.7408359 L17.0588232,6.7408359 C16.2957801,6.7408359 15.6295732,6.34750937 15.2721775,5.76426859 L15.2721775,5.76426859 L16.076817,5.32636714 C16.2731517,5.64655315 16.6388667,5.86283565 17.0588232,5.86283565 L17.0588232,5.86283565 C17.4791126,5.86283565 17.8451604,5.64655315 18.0408295,5.32636714 L18.0408295,5.32636714 L21.0640511,6.97375552 C20.9678804,7.13070944 20.9119749,7.31214818 20.9119749,7.50708495 L20.9119749,7.50708495 C20.9119749,7.70233563 20.9682132,7.88471609 21.0653822,8.04229783 L21.0653822,8.04229783 L18.0414951,9.6893723 C17.8451604,9.36918629 17.4791126,9.15321769 17.059156,9.15321769 L17.059156,9.15321769 Z M13.0535954,8.04198392 C13.1500989,7.88408827 13.2066699,7.70233563 13.2066699,7.50708495 L13.2066699,7.50708495 C13.2066699,7.31214818 13.1500989,7.13008163 13.0539281,6.97249989 L13.0539281,6.97249989 L13.8589004,6.53397063 C14.0352689,6.82056849 14.1374295,7.15236908 14.1374295,7.50708495 L14.1374295,7.50708495 C14.1374295,7.86148691 14.0352689,8.1932875 13.8585676,8.48019927 L13.8585676,8.48019927 L13.0535954,8.04198392 L13.0535954,8.04198392 Z" id="path412" fill="url(#linearGradient-15)" transform="translate(17.046844, 7.523722) scale(1, -1) translate(-17.046844, -7.523722) "></path>
                <path d="M10.0070798,3.33179669 C10.0070798,2.97802255 10.1095732,2.64622195 10.2859416,2.36025191 L10.2859416,2.36025191 L11.0905811,2.79815335 C10.9940776,2.956049 10.9381722,3.13748773 10.9381722,3.33179669 L10.9381722,3.33179669 C10.9381722,3.52736128 10.995076,3.71005564 11.0919122,3.86763738 L11.0919122,3.86763738 L10.28694,4.30616664 C10.1102387,4.01894097 10.0070798,3.68745428 10.0070798,3.33179669 M5.29970581,1.58929424 L6.10467808,1.15107888 C6.30068001,1.47032316 6.66639498,1.68629176 7.08568604,1.68629176 L7.08568604,1.68629176 C7.50564263,1.68629176 7.87069207,1.47095098 8.06735954,1.15107888 L8.06735954,1.15107888 L8.87199904,1.58992205 C8.51427056,2.17096548 7.84839643,2.56491982 7.08568604,2.56491982 L7.08568604,2.56491982 C6.32297565,2.56491982 5.65710152,2.17096548 5.29970581,1.58929424" id="path432" fill="url(#linearGradient-16)" transform="translate(8.128257, 2.720618) scale(1, -1) translate(-8.128257, -2.720618) "></path>
                <path d="M11.0919122,0.00399683304 C11.2885797,0.32355502 11.6536291,0.538581895 12.0722546,0.538581895 C12.4912129,0.538581895 12.8565951,0.32355502 13.0529298,0.00399683304 L13.8579021,0.442840002 C13.4998408,1.02419733 12.8346323,1.41658214 12.0722546,1.41658214 C11.3102098,1.41658214 10.6446684,1.02419733 10.28694,0.442212186 L11.0919122,0.00399683304 L11.0919122,0.00399683304 Z" id="path444" fill="#DEDC00" transform="translate(12.117179, 0.788766) scale(1, -1) translate(-12.117179, -0.788766) "></path>
                <path d="M5.02117675,6.05149427 C5.02117675,5.88575093 5.04546901,5.72659965 5.08673258,5.5724709 L5.08673258,5.5724709 L3.53768507,4.72900051 C3.16498191,5.07053225 2.65850494,5.28179223 2.09878466,5.28179223 L2.09878466,5.28179223 C1.33640704,5.28179223 0.670200145,4.88877961 0.313137208,4.30710837 L0.313137208,4.30710837 L1.11777671,3.86857911 C1.31411141,4.18813729 1.67916084,4.40410589 2.09878466,4.40410589 L2.09878466,4.40410589 C2.51874126,4.40410589 2.88412346,4.18813729 3.08045816,3.86857911 L3.08045816,3.86857911 L6.10501085,5.51690921 C6.00817458,5.67417704 5.95193634,5.8565575 5.95193634,6.05149427 L5.95193634,6.05149427 C5.95193634,6.24643104 6.00817458,6.42849759 6.10467808,6.58607933 L6.10467808,6.58607933 L5.29970581,7.02429468 C5.12333735,6.73738291 5.02117675,6.40558232 5.02117675,6.05149427" id="path464" fill="url(#linearGradient-17)" transform="translate(3.141688, 5.438118) scale(1, -1) translate(-3.141688, -5.438118) "></path>
                <path d="M0.965168073,7.60612288 C0.965168073,7.80105965 1.02140632,7.9831262 1.11790981,8.14070794 L0.312937545,8.5792372 C0.136901857,8.29232543 0.0340757174,7.96052483 0.0340757174,7.60612288 C0.0340757174,7.2510931 0.136901857,6.91929251 0.313270316,6.63238074 L1.11790981,7.07153781 C1.02140632,7.22911955 0.965168073,7.4111861 0.965168073,7.60612288" id="path476" fill="#EC6608" transform="translate(0.533232, 7.574104) scale(1, -1) translate(-0.533232, -7.574104) "></path>
                <path d="M18.0398312,6.58231244 C18.1363347,6.4247307 18.1932385,6.24203633 18.1932385,6.04647174 L18.1932385,6.04647174 C18.1932385,5.85216279 18.137333,5.67072405 18.0414951,5.51314231 L18.0414951,5.51314231 L21.0653822,3.86606784 C21.2620497,4.18562603 21.6267663,4.40065291 22.0460574,4.40065291 L22.0460574,4.40065291 C22.4650157,4.40065291 22.8300651,4.18562603 23.0267326,3.86669566 L23.0267326,3.86669566 L23.8310393,4.30522492 C23.4733108,4.88626834 22.8081022,5.27865315 22.0460574,5.27865315 L22.0460574,5.27865315 C21.4863371,5.27865315 20.9788618,5.06707926 20.6064914,4.7246058 L20.6064914,4.7246058 L19.0584422,5.56744837 C19.1000386,5.72157712 19.1243308,5.8807284 19.1243308,6.04647174 L19.1243308,6.04647174 C19.1243308,6.40212933 19.0211719,6.73392993 18.8444707,7.02052779 L18.8444707,7.02052779 L18.0398312,6.58231244 L18.0398312,6.58231244 Z" id="path496" fill="url(#linearGradient-18)" transform="translate(20.868382, 5.435607) scale(1, -1) translate(-20.868382, -5.435607) "></path>
                <path d="M23.1798736,7.60050393 C23.1798736,7.40556715 23.1239682,7.22412842 23.0281302,7.06717449 L23.8327697,6.62864523 C24.0084726,6.91430137 24.110966,7.24610197 24.110966,7.60050393 C24.110966,7.9555337 24.0078071,8.2876482 23.8311059,8.57487388 L23.0261336,8.13634462 C23.1233026,7.97813506 23.1798736,7.79606851 23.1798736,7.60050393" id="path508" fill="#76B82A" transform="translate(23.525290, 7.570369) scale(1, -1) translate(-23.525290, -7.570369) "></path>
                <path d="M13.0529298,3.86512612 C13.1497661,3.70754438 13.2066699,3.52485002 13.2066699,3.32928543 L13.2066699,3.32928543 C13.2066699,3.13560429 13.1504316,2.95353774 13.0545937,2.79658381 L13.0545937,2.79658381 L13.859566,2.35805455 C14.0356016,2.64433851 14.1374295,2.97551129 14.1374295,3.32928543 L14.1374295,3.32928543 C14.1374295,3.68494302 14.0346033,4.01705752 13.8575693,4.3042832 L13.8575693,4.3042832 L13.0529298,3.86512612 L13.0529298,3.86512612 Z M15.2735086,1.58803861 L16.0788136,1.14982325 C16.2751483,1.46843972 16.6401977,1.6837805 17.059156,1.6837805 L17.059156,1.6837805 C17.4781143,1.6837805 17.8434965,1.46843972 18.0398312,1.14982325 L18.0398312,1.14982325 L18.8444707,1.58803861 C18.4867422,2.16939594 17.8215336,2.56240856 17.059156,2.56240856 L17.059156,2.56240856 C16.2971112,2.56240856 15.6315698,2.16939594 15.2735086,1.58803861 L15.2735086,1.58803861 Z" id="path528" fill="url(#linearGradient-19)" transform="translate(15.881481, 2.719362) scale(1, -1) translate(-15.881481, -2.719362) "></path>
                <path d="M22.0457246,21.5764346 C21.6261008,21.5764346 21.2607186,21.7924032 21.0647167,22.1119614 L21.0647167,22.1119614 L20.2597444,21.6728043 C20.6174729,21.0917609 21.283347,20.6987483 22.0457246,20.6987483 L22.0457246,20.6987483 C22.8087678,20.6987483 23.4746419,21.0917609 23.8320376,21.6734321 L23.8320376,21.6734321 L23.0273981,22.1119614 C22.8307306,21.7924032 22.4653484,21.5764346 22.0457246,21.5764346 L22.0457246,21.5764346 Z M18.0408295,20.4639452 C18.137333,20.3069913 18.1932385,20.1249247 18.1932385,19.9306158 L18.1932385,19.9306158 C18.1932385,19.735679 18.1363347,19.5529846 18.0398312,19.395089 L18.0398312,19.395089 L18.8444707,18.9562458 C19.0211719,19.2431576 19.1243308,19.575586 19.1243308,19.9306158 L19.1243308,19.9306158 C19.1243308,20.2850177 19.0215047,20.6165044 18.8458018,20.9031023 L18.8458018,20.9031023 L18.0408295,20.4639452 L18.0408295,20.4639452 Z" id="path548" fill="url(#linearGradient-20)" transform="translate(20.868382, 20.525785) scale(1, -1) translate(-20.868382, -20.525785) "></path>
                <path d="M23.1798736,18.4678052 C23.1798736,18.2728684 23.1236354,18.0908019 23.0271319,17.9332201 L23.8321042,17.4946909 C24.0081399,17.7809748 24.110966,18.1134033 24.110966,18.4678052 C24.110966,18.8222072 24.0081399,19.1546356 23.8317714,19.4409195 L23.0267991,19.0023903 C23.1236354,18.8448085 23.1798736,18.662742 23.1798736,18.4678052" id="path560" fill="#0090D7" transform="translate(23.525955, 18.436414) scale(1, -1) translate(-23.525955, -18.436414) "></path>
                <path d="M2.09878466,21.5789459 C1.68049192,21.5789459 1.31610803,21.7936588 1.11944056,22.1119614 L1.11944056,22.1119614 L0.31446829,21.673746 C0.672529539,21.0930165 1.33773812,20.7012595 2.09878466,20.7012595 L2.09878466,20.7012595 C2.86116229,20.7012595 3.5260381,21.0930165 3.88376658,21.673746 L3.88376658,21.673746 L3.07912708,22.1119614 C2.88245961,21.7936588 2.51774295,21.5789459 2.09878466,21.5789459 M5.02117675,19.933127 C5.02117675,19.5774694 5.12400289,19.245041 5.30136966,18.9575014 L5.30136966,18.9575014 L6.10600916,19.3966585 C6.00884013,19.5542403 5.95193634,19.7372485 5.95193634,19.933127 L5.95193634,19.933127 C5.95193634,20.127436 6.00717627,20.3082469 6.10268146,20.4652008 L6.10268146,20.4652008 L5.29804196,20.9034162 C5.12300458,20.6174461 5.02117675,20.2869012 5.02117675,19.933127" id="path580" fill="url(#linearGradient-21)" transform="translate(3.143019, 20.527041) scale(1, -1) translate(-3.143019, -20.527041) "></path>
                <path d="M0.0342753798,18.4721999 C0.0342753798,18.1165423 0.13743429,17.7834861 0.31446829,17.4968882 L0.31446829,17.4968882 L1.11944056,17.9351036 C1.02193875,18.0933131 0.965034965,18.2760075 0.965034965,18.4721999 L0.965034965,18.4721999 C0.965034965,18.6658811 1.0202749,18.8476337 1.11644562,19.0042737 L1.11644562,19.0042737 L0.311140584,19.442803 C0.136103207,19.156519 0.0342753798,18.8259741 0.0342753798,18.4721999" id="path600" fill="url(#linearGradient-22)" transform="translate(0.533431, 18.438612) scale(1, -1) translate(-0.533431, -18.438612) "></path>
                <path d="M23.5883829,30.1057189 L12.6312428,30.1057189 L12.6312428,34.8780598 L12.6312428,34.8818267 L15.618858,36.5081833 C15.9912284,36.1657098 16.4990364,35.9535081 17.0594222,35.9535081 C17.8214671,35.9535081 18.4870084,36.3458929 18.8444041,36.9269364 L18.0397646,37.3660934 C17.8434299,37.0465352 17.4783805,36.8315084 17.0594222,36.8315084 C16.6401312,36.8315084 16.2750817,37.0465352 16.078747,37.3660934 C15.9819108,37.5236752 15.9253398,37.7063695 15.9253398,37.9013063 C15.9253398,38.0956153 15.9812452,38.2776818 16.077416,38.4346357 L15.2721109,38.873165 C15.096408,38.586881 14.9942474,38.2557083 14.9942474,37.9013063 C14.9942474,37.7352491 15.0188724,37.5751561 15.0604688,37.4213412 L12.6312428,36.0982196 L12.6312428,38.7425793 C13.1540256,38.8810127 13.5919518,39.2096742 13.8588339,39.6425531 L13.0541944,40.0807685 C12.8578597,39.7615242 12.4924775,39.5455556 12.0728536,39.5455556 C11.6532298,39.5455556 11.2875148,39.7615242 11.0911801,40.0807685 L10.2865406,39.6425531 C10.5537555,39.2096742 10.9916817,38.8810127 11.5144644,38.7425793 L11.5141317,36.0988475 L9.08523849,37.4225968 C9.12650205,37.5757839 9.15079431,37.7358769 9.15079431,37.9013063 C9.15079431,38.2550805 9.04896648,38.5862532 8.87326356,38.8725372 L8.06829129,38.4340079 C8.16412925,38.277054 8.21970195,38.0956153 8.21970195,37.9013063 C8.21970195,37.7057417 8.16313094,37.5224195 8.0659619,37.3648378 C7.86929443,37.0459074 7.504245,36.8315084 7.08561948,36.8315084 C6.66732674,36.8315084 6.30294285,37.0459074 6.10627538,37.3648378 L5.30130311,36.9259946 C5.65903159,36.3458929 6.32424017,35.9535081 7.08561948,35.9535081 C7.64667085,35.9535081 8.15481167,36.1663376 8.52718206,36.5088111 L11.5141317,34.8818267 L11.5141317,34.8780598 L11.5141317,30.1057189 L0.556658789,30.1057189 C0.351006511,30.1057189 0.184288401,29.9481371 0.184288401,29.754456 C0.184288401,29.560147 0.351006511,29.4031931 0.556658789,29.4031931 L11.4938327,29.4031931 C11.4329356,29.0604057 11.2675486,28.6626845 10.8725498,28.3142468 C10.164081,27.6876867 8.90520955,27.4114478 7.23037473,27.5150374 C6.43838052,27.5627514 5.76252327,27.5159791 5.18649723,27.4051697 C5.15322016,27.4045419 5.11927755,27.3988915 5.08600048,27.3860213 C5.08333832,27.3850796 5.08100892,27.3838239 5.07801399,27.3825683 C3.15959103,26.9754298 2.40087388,25.8284106 2.26377237,25.0539999 C2.23848179,24.910544 2.34130793,24.7749358 2.49305136,24.7510788 C2.50869158,24.7485676 2.52433181,24.7473119 2.53963926,24.7473119 C2.67341307,24.7473119 2.7922122,24.8386591 2.81484061,24.9673613 C2.82482373,25.0251204 2.994204,25.888367 4.06838775,26.4738051 C3.97454642,26.2195397 3.94958862,25.9442426 3.92562913,25.6626672 C3.89135375,25.2592956 3.85208681,24.8031875 3.59485508,24.3040741 C3.52730263,24.1728606 3.58520473,24.0152788 3.7239701,23.9515555 C3.76323704,23.9336628 3.80483337,23.9251873 3.84576417,23.9251873 C3.94925585,23.9251873 4.04875428,23.9798073 4.09700603,24.0736657 C4.40049289,24.6616151 4.4457497,25.1930611 4.48235447,25.6202897 C4.53692886,26.2587782 4.56787654,26.6125524 5.28133687,26.8919303 C5.53224596,26.9405861 5.80844562,26.9754298 6.11226525,26.9936365 C5.78981047,26.6197722 5.71826477,26.1030799 5.64572076,25.5672392 C5.54156354,24.7953398 5.41178298,23.8344679 4.54358428,22.8644927 C4.44408585,22.7536832 4.45906053,22.587312 4.57652857,22.4934536 C4.62877357,22.4520178 4.69299831,22.4309859 4.75655751,22.4309859 C4.8360897,22.4309859 4.91495635,22.4630045 4.97019629,22.5248444 C5.9448816,23.6131629 6.08630914,24.6597316 6.19978394,25.5010047 C6.32457294,26.4254633 6.41641765,26.8448442 7.23336966,26.9870444 C9.07159489,26.8803157 10.4243077,27.196107 11.2549033,27.9300236 C11.3417565,28.0072449 11.4202903,28.0907444 11.4944982,28.1764412 C11.2658847,27.5498812 10.7966781,26.838566 9.83164312,26.0710613 C9.83164312,26.0710613 9.83131034,26.0704335 9.83097757,26.0704335 C9.22001061,25.5848181 8.70255221,25.2966507 8.24599084,25.0423853 C7.38012153,24.5599089 6.75484543,24.2108434 6.52889414,23.0019843 C6.50227249,22.8585284 6.60410031,22.7216646 6.75584374,22.696552 C6.77248228,22.6934129 6.78845527,22.6921573 6.80442826,22.6921573 C6.93753653,22.6921573 7.05533735,22.7822488 7.07929684,22.9106371 C7.26032409,23.8809263 7.71122836,24.1317386 8.52984422,24.5884746 C8.6050504,24.6302243 8.68491536,24.6751131 8.76611141,24.7209437 C8.58242199,24.3103522 8.4892462,23.9032137 8.40239306,23.5199323 C8.20306342,22.6387929 8.03068821,21.878822 6.92821895,21.1970142 C6.79910393,21.1172816 6.76283193,20.9540495 6.84735568,20.8322533 C6.90126453,20.754718 6.99044707,20.7132822 7.08162624,20.7132822 C7.13387123,20.7132822 7.18711454,20.7274081 7.23403521,20.7559737 C8.52917868,21.5567526 8.74248469,22.4991039 8.94880251,23.4094367 C8.97242923,23.5142819 8.99572317,23.6175576 9.02101374,23.7205194 C9.07991415,23.4408275 9.16543622,23.1655303 9.24862889,22.8993364 C9.4323183,22.3120149 9.62199759,21.7046032 9.5151782,21.1320353 C9.48855655,20.9885794 9.5900516,20.8517156 9.7421278,20.8266029 C9.7581008,20.8240917 9.77440656,20.822836 9.79071232,20.822836 C9.92382059,20.822836 10.0416214,20.9122998 10.0652481,21.0406881 C10.1950287,21.7350522 9.98604871,22.4027342 9.78438968,23.0490705 C9.47591126,24.035055 9.20936195,24.8870009 10.191701,25.6683176 L10.1920338,25.6683176 C11.0153084,26.3237571 11.5118023,26.9522006 11.8119614,27.5285354 C11.8751878,26.838566 11.9600444,26.2317821 12.0465647,25.6858964 C12.2442305,24.4340319 11.9154531,24.0501226 11.5344307,23.6056291 C11.1524099,23.1601939 10.7191425,22.65543 10.8016696,21.3709191 C10.8109872,21.2312302 10.9341124,21.1232459 11.0805315,21.1232459 C11.0861886,21.1232459 11.0918457,21.1232459 11.0975028,21.1238737 C11.2519084,21.1326631 11.3687109,21.2575984 11.3593933,21.4029377 C11.2898442,22.4830946 11.61962,22.8676318 11.9686964,23.2747702 C12.1001408,23.4273294 12.2329163,23.5823999 12.3467239,23.7676055 C12.5181008,22.3157818 12.3613658,21.201095 11.0113152,19.4108786 C10.9221326,19.2925353 10.9510837,19.1283615 11.076871,19.0436064 C11.1261211,19.010646 11.1826921,18.9952646 11.2385975,18.9952646 C11.3257835,18.9952646 11.4119711,19.0332474 11.4662127,19.1057601 C13.3041051,21.5419989 13.080816,22.8761073 12.710775,25.0850768 C12.5876499,25.8189933 12.4462223,26.6659167 12.3577053,27.6977318 C12.6641871,27.0950287 13.0804832,26.6436292 13.4708232,26.2229927 C14.4551589,25.1616703 15.305388,24.2460011 14.0555013,21.184144 C13.9999286,21.047908 14.0714743,20.8959766 14.215564,20.8432401 C14.2485083,20.8316255 14.2821182,20.8253473 14.315728,20.8253473 C14.4282045,20.8253473 14.5336928,20.8896984 14.5766202,20.9945436 C15.2218626,22.5756975 15.3316769,23.6621325 15.1619638,24.4830015 C15.5459812,24.0108841 15.7972231,23.370826 15.6614526,22.1625947 C15.6448141,22.0178832 15.7562923,21.8879254 15.9093668,21.8725439 C15.9193499,21.8719161 15.9290002,21.8712882 15.9393161,21.8712882 C16.0800781,21.8712882 16.2012067,21.9711109 16.2165141,22.1067191 C16.2650986,22.5395981 16.2650986,22.9081259 16.2318216,23.2323927 C16.58955,22.8858384 16.9805556,22.563455 17.3066708,22.389864 C17.349931,22.3672626 17.3971845,22.3562759 17.4434396,22.3562759 C17.5409414,22.3562759 17.635781,22.4046177 17.6873605,22.4906284 C17.7625667,22.6174472 17.7153132,22.778168 17.5805411,22.8491112 C17.0005218,23.1576826 16.086068,24.1085095 15.7759257,24.5743487 C15.7715997,24.5818825 15.7659426,24.5872189 15.760951,24.5934971 C15.5256822,24.9409931 15.2368372,25.2005949 14.9616359,25.4451291 C14.7556508,25.6290791 14.5613128,25.8020423 14.3945946,26.0054546 C14.3919325,26.0085937 14.3886048,26.0111049 14.3862754,26.0133023 C14.227211,26.2066695 14.0584963,26.3893639 13.8907798,26.5701748 C13.4847996,27.0071345 13.0714984,27.4547671 12.7936349,28.0672013 C13.386965,27.5775051 14.2907702,27.3954385 15.2607967,27.2924767 C15.2634589,27.2918489 15.2661211,27.2912211 15.2697815,27.2905933 C16.637469,27.148393 16.8351348,26.2170285 17.0644138,25.1390689 C17.159919,24.689239 17.2587519,24.222458 17.4550866,23.817203 C17.5020072,23.7211472 17.6035023,23.6633881 17.7093234,23.6633881 C17.7482575,23.6633881 17.7875245,23.6712358 17.8254603,23.6872451 C17.9658896,23.7481433 18.0271194,23.9044694 17.9632274,24.0369385 C17.7938471,24.3863179 17.7053301,24.8025597 17.6118216,25.2426585 C17.5602421,25.4868788 17.5056677,25.7370634 17.4357859,25.9822254 C17.6710547,25.867649 17.9163067,25.7731628 18.1592293,25.6811878 C18.7998129,25.4382231 19.3532105,25.2285327 19.5891449,24.6867277 C19.6334034,24.5843938 19.7378934,24.5228678 19.8477077,24.5228678 C19.8826487,24.5228678 19.9189207,24.529146 19.953196,24.542644 C20.0962874,24.5978918 20.1645054,24.7517066 20.1059378,24.886687 C19.7808208,25.6344155 19.0620362,25.9072014 18.367211,26.1702562 C17.8124823,26.3805745 17.2880357,26.5792781 16.9536012,27.0058789 C16.9120048,27.0592432 16.8670808,27.1107241 16.8194946,27.1606355 C18.5728633,27.0096458 20.2560174,26.7246175 20.7245585,25.0951218 C20.7578355,24.9774064 20.870312,24.9001851 20.9934372,24.9001851 C21.0177294,24.9001851 21.0423545,24.9030102 21.0669795,24.9092884 C21.2153952,24.9472712 21.3035795,25.0919827 21.2633142,25.2329274 C20.6420313,27.3960663 18.3322701,27.574366 16.2943824,27.7319477 C14.2032515,27.8932964 12.8625184,28.071596 12.6695115,29.4031931 L23.5883829,29.4031931 C23.7940352,29.4031931 23.9607533,29.560147 23.9607533,29.754456 C23.9607533,29.9481371 23.7940352,30.1057189 23.5883829,30.1057189" id="path612" fill="#213A8F" transform="translate(11.997647, 29.511177) scale(1, -1) translate(-11.997647, -29.511177) "></path>
            </g>
            <path d="M47.18,13.56 L47.18,12.88 L42.3,12.88 L42.3,13.56 L44.36,13.56 L44.36,20 L45.12,20 L45.12,13.56 L47.18,13.56 Z M51.19,17.73 L51.19,17.4 C51.19,15.93 50.42,15.02 49.17,15.02 C47.92,15.02 47.15,15.96 47.15,17.51 C47.15,19.18 47.9,20.06 49.32,20.06 C49.68,20.06 50,20 50.27,19.89 C50.57,19.77 50.74,19.65 51.1,19.3 L50.61,18.87 C50.34,19.13 50.21,19.22 49.99,19.31 C49.81,19.38 49.59,19.43 49.36,19.43 C48.69,19.43 48.25,19.17 48.02,18.62 C47.92,18.38 47.89,18.18 47.87,17.73 L51.19,17.73 Z M50.47,17.19 L47.87,17.19 C47.89,16.75 47.92,16.59 48.02,16.37 C48.22,15.91 48.65,15.63 49.17,15.63 C49.75,15.63 50.21,15.97 50.38,16.54 C50.44,16.72 50.45,16.81 50.47,17.19 L50.47,17.19 Z M56.34,20 L56.34,15.08 L52.53,15.08 L52.53,20 L53.24,20 L53.24,15.7 L55.62,15.7 L55.62,20 L56.34,20 Z M61.6,20 L61.6,15.08 L58.45,15.08 L58.45,17.19 C58.45,19.24 57.85,19.38 57.41,19.38 L57.25,19.38 L57.25,20 L57.58,20 C58.48,20 59.14,19.46 59.14,17.4 L59.14,15.7 L60.88,15.7 L60.88,20 L61.6,20 Z M67.17,20 L67.17,15.08 L66.45,15.08 L63.92,18.87 L63.92,15.08 L63.21,15.08 L63.21,20 L63.92,20 L66.45,16.19 L66.45,20 L67.17,20 Z M73.33,21.47 L73.33,19.38 L72.59,19.38 L72.59,15.08 L71.87,15.08 L71.87,19.38 L69.49,19.38 L69.49,15.08 L68.78,15.08 L68.78,20 L72.63,20 L72.63,21.47 L73.33,21.47 Z M77.87,20 L77.87,16.66 C77.87,15.57 77.2,15.02 75.88,15.02 C75.41,15.02 75.06,15.08 74.78,15.22 C74.54,15.34 74.42,15.45 74.16,15.75 L74.65,16.2 C74.83,15.96 74.93,15.87 75.1,15.79 C75.3,15.69 75.54,15.64 75.86,15.64 C76.76,15.64 77.15,15.97 77.15,16.72 L77.15,17.19 L75.67,17.19 C74.61,17.19 73.97,17.72 73.97,18.61 C73.97,19.55 74.58,20.06 75.72,20.06 C76.1,20.06 76.36,20.03 76.59,19.93 C76.79,19.85 76.91,19.76 77.15,19.53 L77.15,20 L77.87,20 Z M77.15,18.26 C77.15,19.1 76.78,19.44 75.86,19.44 C75.03,19.44 74.67,19.19 74.67,18.6 C74.67,18.02 75.04,17.73 75.77,17.73 L77.15,17.73 L77.15,18.26 Z M46.43,29.33 L45.94,28.86 C45.68,29.13 45.56,29.23 45.36,29.32 C45.2,29.39 45.03,29.42 44.82,29.42 C43.85,29.42 43.35,28.78 43.35,27.54 C43.35,26.3 43.86,25.66 44.83,25.66 C45.04,25.66 45.22,25.7 45.38,25.77 C45.57,25.85 45.69,25.95 45.94,26.21 L46.43,25.75 C46.1,25.41 45.94,25.29 45.67,25.17 C45.43,25.07 45.16,25.02 44.84,25.02 C43.46,25.02 42.63,25.97 42.63,27.54 C42.63,29.11 43.46,30.06 44.84,30.06 C45.16,30.06 45.43,30.01 45.67,29.91 C45.94,29.79 46.1,29.67 46.43,29.33 L46.43,29.33 Z M51.36,27.51 C51.36,26.59 51.18,26 50.76,25.58 C50.4,25.22 49.9,25.02 49.35,25.02 C48.79,25.02 48.3,25.22 47.94,25.58 C47.52,26.01 47.34,26.59 47.34,27.54 C47.34,28.49 47.52,29.07 47.94,29.5 C48.3,29.86 48.79,30.06 49.35,30.06 C49.91,30.06 50.4,29.86 50.76,29.5 C51.19,29.06 51.36,28.49 51.36,27.51 L51.36,27.51 Z M50.64,27.57 C50.64,28.35 50.53,28.77 50.25,29.06 C50.03,29.29 49.7,29.42 49.35,29.42 C49,29.42 48.68,29.29 48.46,29.06 C48.17,28.76 48.06,28.34 48.06,27.54 C48.06,26.74 48.17,26.31 48.46,26.02 C48.68,25.79 49.01,25.66 49.35,25.66 C49.7,25.66 50.03,25.79 50.25,26.02 C50.54,26.31 50.64,26.73 50.64,27.57 L50.64,27.57 Z M57.26,31.47 L57.26,29.38 L56.52,29.38 L56.52,25.08 L55.8,25.08 L55.8,29.38 L53.42,29.38 L53.42,25.08 L52.71,25.08 L52.71,30 L56.56,30 L56.56,31.47 L57.26,31.47 Z M62.26,30 L62.26,25.08 L61.54,25.08 L59.01,28.87 L59.01,25.08 L58.3,25.08 L58.3,30 L59.01,30 L61.54,26.19 L61.54,30 L62.26,30 Z M67.37,30 L67.37,26.66 C67.37,25.57 66.7,25.02 65.38,25.02 C64.91,25.02 64.56,25.08 64.28,25.22 C64.04,25.34 63.92,25.45 63.66,25.75 L64.15,26.2 C64.33,25.96 64.43,25.87 64.6,25.79 C64.8,25.69 65.04,25.64 65.36,25.64 C66.26,25.64 66.65,25.97 66.65,26.72 L66.65,27.19 L65.17,27.19 C64.11,27.19 63.47,27.72 63.47,28.61 C63.47,29.55 64.08,30.06 65.22,30.06 C65.6,30.06 65.86,30.03 66.09,29.93 C66.29,29.85 66.41,29.76 66.65,29.53 L66.65,30 L67.37,30 Z M66.65,28.26 C66.65,29.1 66.28,29.44 65.36,29.44 C64.53,29.44 64.17,29.19 64.17,28.6 C64.17,28.02 64.54,27.73 65.27,27.73 L66.65,27.73 L66.65,28.26 Z M72.58,30 L72.58,25.08 L69.43,25.08 L69.43,27.19 C69.43,29.24 68.83,29.38 68.39,29.38 L68.23,29.38 L68.23,30 L68.56,30 C69.46,30 70.12,29.46 70.12,27.4 L70.12,25.7 L71.86,25.7 L71.86,30 L72.58,30 Z M77.94,28.52 C77.94,27.62 77.32,27.03 76.38,27.03 L74.9,27.03 L74.9,25.08 L74.19,25.08 L74.19,30 L76.38,30 C77.32,30 77.94,29.41 77.94,28.52 L77.94,28.52 Z M77.22,28.52 C77.22,29.07 76.9,29.38 76.3,29.38 L74.9,29.38 L74.9,27.66 L76.3,27.66 C76.9,27.66 77.22,27.97 77.22,28.52 L77.22,28.52 Z M82.86,30 L82.86,25.08 L82.14,25.08 L82.14,27.15 L79.76,27.15 L79.76,25.08 L79.05,25.08 L79.05,30 L79.76,30 L79.76,27.77 L82.14,27.77 L82.14,30 L82.86,30 Z M89.73,30 L89.73,25.08 L89.01,25.08 L89.01,30 L89.73,30 Z M88.22,28.52 C88.22,27.62 87.6,27.03 86.66,27.03 L85.18,27.03 L85.18,25.08 L84.47,25.08 L84.47,30 L86.66,30 C87.6,30 88.22,29.41 88.22,28.52 L88.22,28.52 Z M87.5,28.52 C87.5,29.07 87.18,29.38 86.58,29.38 L85.18,29.38 L85.18,27.66 L86.58,27.66 C87.18,27.66 87.5,27.97 87.5,28.52 L87.5,28.52 Z M94.99,30 L93.32,27.49 L94.92,25.08 L94.05,25.08 L92.94,26.9 L91.81,25.08 L90.94,25.08 L92.54,27.49 L90.87,30 L91.74,30 L92.94,28.09 L94.12,30 L94.99,30 Z M46.13,35.7 L46.13,35.08 L42.11,35.08 L42.11,35.7 L43.8,35.7 L43.8,40 L44.52,40 L44.52,35.7 L46.13,35.7 Z M50.6,37.73 L50.6,37.4 C50.6,35.93 49.83,35.02 48.58,35.02 C47.33,35.02 46.56,35.96 46.56,37.51 C46.56,39.18 47.31,40.06 48.73,40.06 C49.09,40.06 49.41,40 49.68,39.89 C49.98,39.77 50.15,39.65 50.51,39.3 L50.02,38.87 C49.75,39.13 49.62,39.22 49.4,39.31 C49.22,39.38 49,39.43 48.77,39.43 C48.1,39.43 47.66,39.17 47.43,38.62 C47.33,38.38 47.3,38.18 47.28,37.73 L50.6,37.73 Z M49.88,37.19 L47.28,37.19 C47.3,36.75 47.33,36.59 47.43,36.37 C47.63,35.91 48.06,35.63 48.58,35.63 C49.16,35.63 49.62,35.97 49.79,36.54 C49.85,36.72 49.86,36.81 49.88,37.19 L49.88,37.19 Z M55.38,40 L53.71,37.49 L55.31,35.08 L54.44,35.08 L53.33,36.9 L52.2,35.08 L51.33,35.08 L52.93,37.49 L51.26,40 L52.13,40 L53.33,38.09 L54.51,40 L55.38,40 Z M60.23,40 L60.23,35.08 L59.51,35.08 L59.51,37.15 L57.13,37.15 L57.13,35.08 L56.42,35.08 L56.42,40 L57.13,40 L57.13,37.77 L59.51,37.77 L59.51,40 L60.23,40 Z M65.59,37.51 C65.59,36.59 65.41,36 64.99,35.58 C64.63,35.22 64.13,35.02 63.58,35.02 C63.02,35.02 62.53,35.22 62.17,35.58 C61.75,36.01 61.57,36.59 61.57,37.54 C61.57,38.49 61.75,39.07 62.17,39.5 C62.53,39.86 63.02,40.06 63.58,40.06 C64.14,40.06 64.63,39.86 64.99,39.5 C65.42,39.06 65.59,38.49 65.59,37.51 L65.59,37.51 Z M64.87,37.57 C64.87,38.35 64.76,38.77 64.48,39.06 C64.26,39.29 63.93,39.42 63.58,39.42 C63.23,39.42 62.91,39.29 62.69,39.06 C62.4,38.76 62.29,38.34 62.29,37.54 C62.29,36.74 62.4,36.31 62.69,36.02 C62.91,35.79 63.24,35.66 63.58,35.66 C63.93,35.66 64.26,35.79 64.48,36.02 C64.77,36.31 64.87,36.73 64.87,37.57 L64.87,37.57 Z M70.49,40 L70.49,35.08 L67.34,35.08 L67.34,37.19 C67.34,39.24 66.74,39.38 66.3,39.38 L66.14,39.38 L66.14,40 L66.47,40 C67.37,40 68.03,39.46 68.03,37.4 L68.03,35.7 L69.77,35.7 L69.77,40 L70.49,40 Z M75.85,37.51 C75.85,36.59 75.67,36 75.25,35.58 C74.89,35.22 74.39,35.02 73.84,35.02 C73.28,35.02 72.79,35.22 72.43,35.58 C72.01,36.01 71.83,36.59 71.83,37.54 C71.83,38.49 72.01,39.07 72.43,39.5 C72.79,39.86 73.28,40.06 73.84,40.06 C74.4,40.06 74.89,39.86 75.25,39.5 C75.68,39.06 75.85,38.49 75.85,37.51 L75.85,37.51 Z M75.13,37.57 C75.13,38.35 75.02,38.77 74.74,39.06 C74.52,39.29 74.19,39.42 73.84,39.42 C73.49,39.42 73.17,39.29 72.95,39.06 C72.66,38.76 72.55,38.34 72.55,37.54 C72.55,36.74 72.66,36.31 72.95,36.02 C73.17,35.79 73.5,35.66 73.84,35.66 C74.19,35.66 74.52,35.79 74.74,36.02 C75.03,36.31 75.13,36.73 75.13,37.57 L75.13,37.57 Z M80.35,35.7 L80.35,35.08 L77.23,35.08 L77.23,40 L77.95,40 L77.95,35.7 L80.35,35.7 Z M85.13,40 L85.13,35.08 L84.41,35.08 L81.88,38.87 L81.88,35.08 L81.17,35.08 L81.17,40 L81.88,40 L84.41,36.19 L84.41,40 L85.13,40 Z M90.18,32.96 L89.54,32.96 C89.5,33.46 89.21,33.71 88.72,33.71 C88.23,33.71 87.94,33.46 87.9,32.96 L87.26,32.96 C87.32,33.86 87.89,34.22 88.72,34.22 C89.55,34.22 90.12,33.86 90.18,32.96 L90.18,32.96 Z M90.7,40 L90.7,35.08 L89.98,35.08 L87.45,38.87 L87.45,35.08 L86.74,35.08 L86.74,40 L87.45,40 L89.98,36.19 L89.98,40 L90.7,40 Z" id="" fill="#222222" sketch:type="MSShapeGroup"></path>
        </g>
    </g>
</svg>